name sv02_filtered_grf.mot
datacolumns 37
datarows 5
range 0.002500 0.004500
endheader
time	1_ground_force_vx	1_ground_force_vy	1_ground_force_vz	1_ground_force_px	1_ground_force_py	1_ground_force_pz	1_ground_torque_x	1_ground_torque_y	1_ground_torque_z	2_ground_force_vx	2_ground_force_vy	2_ground_force_vz	2_ground_force_px	2_ground_force_py	2_ground_force_pz	2_ground_torque_x	2_ground_torque_y	2_ground_torque_z	3_ground_force_vx	3_ground_force_vy	3_ground_force_vz	3_ground_force_px	3_ground_force_py	3_ground_force_pz	3_ground_torque_x	3_ground_torque_y	3_ground_torque_z	4_ground_force_vx	4_ground_force_vy	4_ground_force_vz	4_ground_force_px	4_ground_force_py	4_ground_force_pz	4_ground_torque_x	4_ground_torque_y	4_ground_torque_z
            0.002500	            0.000005	           -0.000000	            0.000004	            0.450000	            0.000000	            0.900000	            0.000002	           -0.000000	           -0.000001	            0.000105	            0.001073	           -0.000624	           -0.154744	            0.000000	            0.205066	            0.000224	            0.000088	            0.000171	           14.802746	            0.314002	           -1.360228	            0.381433	            1.022239	            1.096428	           -0.080969	           -0.001718	            0.007440	          -14.317673	            2.005248	           -1.807264	           -0.491802	            1.020136	            1.099059	            0.026293	           -0.003682	            0.003319
            0.003000	            0.000005	            0.000001	            0.000004	            0.450000	            0.000000	            0.900000	            0.000003	            0.000000	           -0.000001	            0.000092	            0.001211	           -0.000677	           -0.154744	            0.000000	            0.205066	            0.000249	            0.000098	            0.000192	           15.027582	            0.319197	           -1.365862	            0.381433	            1.022239	            1.096428	           -0.082569	           -0.001754	            0.007505	          -14.164825	            1.893431	           -1.636104	           -0.491802	            1.020136	            1.099059	            0.023697	           -0.003168	            0.002737
            0.003500	            0.000006	            0.000002	            0.000005	            0.450000	            0.000000	            0.900000	            0.000003	            0.000000	           -0.000001	            0.000076	            0.001346	           -0.000727	           -0.154744	            0.000000	            0.205066	            0.000274	            0.000107	            0.000213	           15.242782	            0.325141	           -1.370042	            0.381435	            1.022242	            1.096428	           -0.084122	           -0.001794	            0.007561	          -14.015350	            1.787687	           -1.468964	           -0.491807	            1.020137	            1.099061	            0.021150	           -0.002698	            0.002217
            0.004000	            0.000007	            0.000003	            0.000005	            0.450000	            0.000000	            0.900000	            0.000003	            0.000000	           -0.000001	            0.000058	            0.001477	           -0.000772	           -0.154744	            0.000000	            0.205066	            0.000297	            0.000116	            0.000233	           15.447541	            0.331737	           -1.372821	            0.381436	            1.022244	            1.096427	           -0.085624	           -0.001839	            0.007609	          -13.869892	            1.688317	           -1.306542	           -0.491811	            1.020138	            1.099064	            0.018672	           -0.002273	            0.001759
            0.004500	            0.000007	            0.000005	            0.000005	            0.450000	            0.000000	            0.900000	            0.000003	            0.000000	           -0.000001	            0.000038	            0.001602	           -0.000812	           -0.154744	            0.000000	            0.205066	            0.000319	            0.000125	            0.000251	           15.641149	            0.338887	           -1.374259	            0.381437	            1.022247	            1.096427	           -0.087068	           -0.001886	            0.007650	          -13.729063	            1.595573	           -1.149496	           -0.491816	            1.020139	            1.099067	            0.016279	           -0.001892	            0.001363
